<svg xmlns="http://www.w3.org/2000/svg" viewBox="0 0 240 320">
  <defs>
    <radialGradient id="shadow" cx="50%" cy="50%" r="50%">
      <stop offset="0" stop-color="#1c1610" stop-opacity=".34"/>
      <stop offset="1" stop-color="#1c1610" stop-opacity="0"/>
    </radialGradient>
    <linearGradient id="wood" x1="0" y1="0" x2="1" y2="0">
      <stop offset="0" stop-color="#5e4827"/>
      <stop offset=".42" stop-color="#a9854c"/>
      <stop offset=".62" stop-color="#c6a868"/>
      <stop offset="1" stop-color="#6b5026"/>
    </linearGradient>
    <linearGradient id="woodV" x1="0" y1="0" x2="0" y2="1">
      <stop offset="0" stop-color="#b59257"/>
      <stop offset="1" stop-color="#6d5228"/>
    </linearGradient>
    <linearGradient id="col" x1="0" y1="0" x2="1" y2="0">
      <stop offset="0" stop-color="#5b4524"/>
      <stop offset=".34" stop-color="#cdaf72"/>
      <stop offset=".5" stop-color="#e7d09a"/>
      <stop offset=".7" stop-color="#b08e52"/>
      <stop offset="1" stop-color="#553f20"/>
    </linearGradient>
    <linearGradient id="neck" x1="0" y1="0" x2="1" y2="1">
      <stop offset="0" stop-color="#caa863"/>
      <stop offset="1" stop-color="#6d5228"/>
    </linearGradient>
    <linearGradient id="sound" x1="0" y1="0" x2="1" y2="0">
      <stop offset="0" stop-color="#7a5e30"/>
      <stop offset=".5" stop-color="#9c7d44"/>
      <stop offset="1" stop-color="#5c451f"/>
    </linearGradient>
  </defs>

  <!-- Schlagschatten -->
  <ellipse cx="128" cy="298" rx="78" ry="13" fill="url(#shadow)"/>

  <!-- Sockel -->
  <rect x="92" y="280" width="92" height="14" rx="4" fill="url(#woodV)" stroke="#4f3c1f" stroke-width="1.2"/>
  <rect x="98" y="292" width="14" height="9" rx="2" fill="#5a4524"/>
  <rect x="164" y="292" width="14" height="9" rx="2" fill="#5a4524"/>

  <!-- Klangkörper -->
  <path d="M80 282 C 66 196 96 120 148 78 L162 82 C 170 150 150 214 160 282 Z" fill="url(#wood)" stroke="#4f3c1f" stroke-width="1.8" stroke-linejoin="round"/>
  <!-- Soundboard-Front (Mittelstreifen, wo die Saiten ansetzen) -->
  <path d="M150 90 C 156 150 150 214 156 276 L164 280 C 158 214 166 150 160 84 Z" fill="url(#sound)" stroke="#4f3c1f" stroke-width="1"/>
  <!-- Highlight auf der Korpus-Rundung -->
  <path d="M92 250 C 80 190 102 132 138 96" fill="none" stroke="#e7cd96" stroke-width="2.2" stroke-linecap="round" opacity=".4"/>

  <!-- Säule -->
  <path d="M186 96 L198 98 C 202 168 194 234 186 282 L170 282 C 178 232 184 166 178 100 Z" fill="url(#col)" stroke="#4f3c1f" stroke-width="1.6" stroke-linejoin="round"/>
  <!-- Säulen-Flöten (Riefen) -->
  <path d="M182 104 C 188 168 184 230 178 278" fill="none" stroke="#5b4524" stroke-width="0.8" opacity=".5"/>
  <path d="M190 104 C 194 168 190 230 185 278" fill="none" stroke="#fff3d8" stroke-width="0.8" opacity=".35"/>
  <!-- Kapitell + Basis -->
  <rect x="172" y="86" width="32" height="12" rx="4" fill="url(#woodV)" stroke="#4f3c1f" stroke-width="1.2"/>
  <rect x="166" y="278" width="40" height="10" rx="3" fill="url(#woodV)" stroke="#4f3c1f" stroke-width="1.2"/>

  <!-- Saiten -->
  <g stroke-linecap="round"><line x1="150.0" y1="86.0" x2="150.0" y2="92.0" stroke="#b35a44" stroke-width="0.85" opacity="0.92"/><line x1="151.7" y1="84.2" x2="150.3" y2="100.5" stroke="#efe3bd" stroke-width="0.7" opacity="0.92"/><line x1="153.4" y1="82.6" x2="150.6" y2="109.0" stroke="#efe3bd" stroke-width="0.7" opacity="0.92"/><line x1="155.2" y1="81.3" x2="150.9" y2="117.4" stroke="#efe3bd" stroke-width="0.7" opacity="0.92"/><line x1="156.9" y1="80.2" x2="151.1" y2="125.9" stroke="#3c4a52" stroke-width="0.85" opacity="0.92"/><line x1="158.6" y1="79.3" x2="151.4" y2="134.4" stroke="#efe3bd" stroke-width="0.7" opacity="0.92"/><line x1="160.4" y1="78.7" x2="151.7" y2="142.9" stroke="#efe3bd" stroke-width="0.7" opacity="0.92"/><line x1="162.1" y1="78.2" x2="152.0" y2="151.3" stroke="#b35a44" stroke-width="0.85" opacity="0.92"/><line x1="163.9" y1="78.0" x2="152.3" y2="159.8" stroke="#efe3bd" stroke-width="0.7" opacity="0.92"/><line x1="165.6" y1="78.0" x2="152.6" y2="168.3" stroke="#efe3bd" stroke-width="0.7" opacity="0.92"/><line x1="167.4" y1="78.3" x2="152.9" y2="176.8" stroke="#efe3bd" stroke-width="0.7" opacity="0.92"/><line x1="169.1" y1="78.8" x2="153.1" y2="185.2" stroke="#3c4a52" stroke-width="0.85" opacity="0.92"/><line x1="170.9" y1="79.5" x2="153.4" y2="193.7" stroke="#efe3bd" stroke-width="0.7" opacity="0.92"/><line x1="172.7" y1="80.4" x2="153.7" y2="202.2" stroke="#efe3bd" stroke-width="0.7" opacity="0.92"/><line x1="174.4" y1="81.6" x2="154.0" y2="210.7" stroke="#b35a44" stroke-width="0.85" opacity="0.92"/><line x1="176.2" y1="82.9" x2="154.3" y2="219.1" stroke="#efe3bd" stroke-width="0.7" opacity="0.92"/><line x1="178.0" y1="84.5" x2="154.6" y2="227.6" stroke="#efe3bd" stroke-width="0.7" opacity="0.92"/><line x1="179.8" y1="86.4" x2="154.9" y2="236.1" stroke="#efe3bd" stroke-width="0.7" opacity="0.92"/><line x1="181.6" y1="88.4" x2="155.1" y2="244.6" stroke="#3c4a52" stroke-width="0.85" opacity="0.92"/><line x1="183.4" y1="90.7" x2="155.4" y2="253.0" stroke="#efe3bd" stroke-width="0.7" opacity="0.92"/><line x1="185.2" y1="93.3" x2="155.7" y2="261.5" stroke="#efe3bd" stroke-width="0.7" opacity="0.92"/><line x1="187.0" y1="96.0" x2="156.0" y2="270.0" stroke="#b35a44" stroke-width="0.85" opacity="0.92"/></g>

  <!-- Hals (Harmonische Kurve) -->
  <path d="M146 80 C 160 44 182 50 196 92 L186 98 C 176 64 162 70 150 90 Z" fill="url(#neck)" stroke="#4f3c1f" stroke-width="1.6" stroke-linejoin="round"/>
  <!-- Stimmwirbel -->
  <g><circle cx="150.0" cy="82.8" r="1.6" fill="#5b4a2c"/><circle cx="150.0" cy="82.8" r="0.7" fill="#d8c79c"/><circle cx="151.7" cy="81.0" r="1.6" fill="#5b4a2c"/><circle cx="151.7" cy="81.0" r="0.7" fill="#d8c79c"/><circle cx="153.4" cy="79.4" r="1.6" fill="#5b4a2c"/><circle cx="153.4" cy="79.4" r="0.7" fill="#d8c79c"/><circle cx="155.2" cy="78.1" r="1.6" fill="#5b4a2c"/><circle cx="155.2" cy="78.1" r="0.7" fill="#d8c79c"/><circle cx="156.9" cy="77.0" r="1.6" fill="#5b4a2c"/><circle cx="156.9" cy="77.0" r="0.7" fill="#d8c79c"/><circle cx="158.6" cy="76.1" r="1.6" fill="#5b4a2c"/><circle cx="158.6" cy="76.1" r="0.7" fill="#d8c79c"/><circle cx="160.4" cy="75.5" r="1.6" fill="#5b4a2c"/><circle cx="160.4" cy="75.5" r="0.7" fill="#d8c79c"/><circle cx="162.1" cy="75.0" r="1.6" fill="#5b4a2c"/><circle cx="162.1" cy="75.0" r="0.7" fill="#d8c79c"/><circle cx="163.9" cy="74.8" r="1.6" fill="#5b4a2c"/><circle cx="163.9" cy="74.8" r="0.7" fill="#d8c79c"/><circle cx="165.6" cy="74.8" r="1.6" fill="#5b4a2c"/><circle cx="165.6" cy="74.8" r="0.7" fill="#d8c79c"/><circle cx="167.4" cy="75.1" r="1.6" fill="#5b4a2c"/><circle cx="167.4" cy="75.1" r="0.7" fill="#d8c79c"/><circle cx="169.1" cy="75.6" r="1.6" fill="#5b4a2c"/><circle cx="169.1" cy="75.6" r="0.7" fill="#d8c79c"/><circle cx="170.9" cy="76.3" r="1.6" fill="#5b4a2c"/><circle cx="170.9" cy="76.3" r="0.7" fill="#d8c79c"/><circle cx="172.7" cy="77.2" r="1.6" fill="#5b4a2c"/><circle cx="172.7" cy="77.2" r="0.7" fill="#d8c79c"/><circle cx="174.4" cy="78.4" r="1.6" fill="#5b4a2c"/><circle cx="174.4" cy="78.4" r="0.7" fill="#d8c79c"/><circle cx="176.2" cy="79.7" r="1.6" fill="#5b4a2c"/><circle cx="176.2" cy="79.7" r="0.7" fill="#d8c79c"/><circle cx="178.0" cy="81.3" r="1.6" fill="#5b4a2c"/><circle cx="178.0" cy="81.3" r="0.7" fill="#d8c79c"/><circle cx="179.8" cy="83.2" r="1.6" fill="#5b4a2c"/><circle cx="179.8" cy="83.2" r="0.7" fill="#d8c79c"/><circle cx="181.6" cy="85.2" r="1.6" fill="#5b4a2c"/><circle cx="181.6" cy="85.2" r="0.7" fill="#d8c79c"/><circle cx="183.4" cy="87.5" r="1.6" fill="#5b4a2c"/><circle cx="183.4" cy="87.5" r="0.7" fill="#d8c79c"/><circle cx="185.2" cy="90.1" r="1.6" fill="#5b4a2c"/><circle cx="185.2" cy="90.1" r="0.7" fill="#d8c79c"/><circle cx="187.0" cy="92.8" r="1.6" fill="#5b4a2c"/><circle cx="187.0" cy="92.8" r="0.7" fill="#d8c79c"/></g>
</svg>
